Motion_pl01
version=1
nRows=12
nColumns=43
inDegrees=yes
endheader
time	pelvis_tilt	pelvis_list	pelvis_rotation	pelvis_tx	pelvis_ty	pelvis_tz	hip_flexion_r	hip_adduction_r	hip_rotation_r	knee_angle_r	ankle_angle_r	subtalar_angle_r	mtp_angle_r	hip_flexion_l	hip_adduction_l	hip_rotation_l	knee_angle_l	ankle_angle_l	subtalar_angle_l	mtp_angle_l	lumbar_extension	lumbar_bending	lumbar_rotation	neck_flexion	neck_lateral_bending	neck_rotation	arm_flex_r	arm_add_r	arm_rot_r	elbow_flex_r	pro_sup_r	wrist_flex_r	wrist_dev_r	hand_finger_flex_r	arm_flex_l	arm_add_l	arm_rot_l	elbow_flex_l	pro_sup_l	wrist_flex_l	wrist_dev_l	hand_finger_flex_l
      0.00250000	      1.52342211	    -10.98889740	     92.60320478	     -0.00915194	      2.03884517	      1.67779447	     23.06801859	     -1.62660003	      4.84058952	    -24.83300553	      5.94503548	     -2.21033672	      2.34638572	     26.11919375	     -3.27804833	      2.21368929	    -32.83642881	     12.86104667	     -7.23455901	      1.31700193	    -20.21983872	      1.35859643	     -0.32737639	      4.93051820	      3.74632089	     -5.00502251	     21.39097279	    -35.44859401	    -29.73942901	     63.42727200	    137.54181983	      1.10586859	     19.62237251	    -19.98629169	     11.09187859	    -28.81023884	    -37.73281974	     69.15111338	    132.34694439	      1.21353549	     11.31885561	     -7.97281694
      0.00500000	      1.52347677	    -11.00109687	     92.60464424	     -0.00913871	      2.03879098	      1.67757900	     23.06806217	     -1.62749087	      4.84045359	    -24.83686945	      5.94512843	     -2.20992247	      2.34660727	     26.12012908	     -3.27916001	      2.21394460	    -32.83574048	     12.86220925	     -7.23515149	      1.31698819	    -20.23159962	      1.35850738	     -0.32419700	      4.93034166	      3.74550228	     -5.00534263	     21.39292733	    -35.44991656	    -29.73856095	     63.43042166	    137.54276725	      1.10667291	     19.62122100	    -19.98621142	     11.09352905	    -28.81182255	    -37.73232856	     69.15338791	    132.34548216	      1.21259574	     11.32059735	     -7.97247779
      0.00750000	      1.53021337	    -11.01071205	     92.56751652	     -0.00898642	      2.03868161	      1.67857743	     23.22448197	     -1.62086260	      4.79434215	    -24.94286497	      5.93617908	     -2.19964011	      2.35441446	     26.21323503	     -3.30141108	      2.21945091	    -32.78698582	     12.90638055	     -7.25303424	      1.31679821	    -20.49884486	      1.35181722	     -0.27491370	      4.89960607	      3.72343517	     -5.01232526	     21.49841592	    -35.58458415	    -29.75158619	     63.63126796	    137.58136592	      1.10899159	     19.57092203	    -19.99130705	     11.19900826	    -28.93470744	    -37.74799885	     69.31028720	    132.29211530	      1.16177932	     11.36550364	     -7.96421290
      0.01000000	      1.52835698	    -11.03216286	     92.58046625	     -0.00900716	      2.03861397	      1.67842265	     23.24118939	     -1.62455835	      4.79094497	    -24.95794924	      5.93681079	     -2.19744756	      2.35524927	     26.18266264	     -3.30251171	      2.21875661	    -32.80569778	     12.90893454	     -7.25471486	      1.31675285	    -20.50587418	      1.35180296	     -0.25963133	      4.90057897	      3.72149819	     -5.01237749	     21.51192774	    -35.58596773	    -29.74573159	     63.65903453	    137.58458693	      1.10996936	     19.56377628	    -19.99155503	     11.21005573	    -28.94019316	    -37.74506833	     69.33065556	    132.28581648	      1.15715570	     11.36886022	     -7.96280426
      0.01250000	      1.52934755	    -11.03224937	     92.58013410	     -0.00898262	      2.03852704	      1.67837119	     23.24212513	     -1.62534937	      4.79086705	    -24.95838251	      5.93684547	     -2.19735035	      2.35527874	     26.18293370	     -3.30237175	      2.21873386	    -32.80572659	     12.90905856	     -7.25475266	      1.31675126	    -20.50758466	      1.35176108	     -0.25957555	      4.90030775	      3.72145010	     -5.01236131	     21.51243840	    -35.58622983	    -29.74564195	     63.66016973	    137.58471868	      1.10993498	     19.56350302	    -19.99158731	     11.21061506	    -28.94042417	    -37.74493119	     69.33150008	    132.28559123	      1.15696765	     11.36892186	     -7.96276051
      0.01500000	      1.37421365	    -10.89897487	     92.36475796	     -0.00894145	      2.03824960	      1.67997745	     23.52494409	     -1.73917613	      4.86033364	    -25.50186149	      6.27639698	     -1.96763044	      2.41440481	     26.38303157	     -3.17496556	      2.17737575	    -33.38723029	     13.13134031	     -7.34623628	      1.31349802	    -21.14248213	      1.20864299	     -0.15284181	      5.08185548	      3.54734173	     -4.92952364	     21.25162349	    -35.83509300	    -29.82863452	     64.92353532	    137.80197749	      1.17278403	     19.35761752	    -20.00549072	     11.06927813	    -29.08845257	    -37.79114733	     70.19414935	    131.84385030	      0.86001964	     11.71634979	     -7.82658930
      0.01750000	      1.37491858	    -10.90074479	     92.36511739	     -0.00893568	      2.03818411	      1.67990065	     23.52571921	     -1.73927445	      4.86024132	    -25.50177393	      6.27622426	     -1.96751319	      2.41443687	     26.38275408	     -3.17480302	      2.17728366	    -33.38703237	     13.13131475	     -7.34622506	      1.31348040	    -21.14444270	      1.20854733	     -0.15223864	      5.08182065	      3.54730828	     -4.92948553	     21.25218254	    -35.83490782	    -29.82853511	     64.92400228	    137.80204031	      1.17287256	     19.35750268	    -20.00547651	     11.06988332	    -29.08869197	    -37.79111490	     70.19458342	    131.84360858	      0.85985792	     11.71645553	     -7.82652285
      0.02000000	      1.38003523	    -10.92845465	     92.36842079	     -0.00896765	      2.03810278	      1.67957509	     23.52829658	     -1.73849559	      4.85785044	    -25.50767438	      6.27335072	     -1.96672020	      2.41468842	     26.37810540	     -3.17451081	      2.17653785	    -33.38672943	     13.13133280	     -7.34622651	      1.31336586	    -21.16485453	      1.20797691	     -0.14589304	      5.07930572	      3.54733059	     -4.92898984	     21.25909911	    -35.83548297	    -29.82813451	     64.93101037	    137.80268637	      1.17279904	     19.35589801	    -20.00561714	     11.07670847	    -29.09331947	    -37.79214543	     70.20051340	    131.84170122	      0.85788733	     11.71664623	     -7.82619671
      0.02250000	      1.42193277	    -10.95640129	     92.33197327	     -0.00869640	      2.03785699	      1.68128401	     23.78030362	     -1.69908984	      4.74897264	    -25.65745090	      6.18104097	     -1.94263293	      2.42324720	     26.49688442	     -3.24593492	      2.16998608	    -33.26395492	     13.14481486	     -7.34985757	      1.30962244	    -21.50044343	      1.21801769	     -0.06934796	      4.99736371	      3.55876978	     -4.90844066	     21.50198473	    -35.96739677	    -29.87715663	     65.25278561	    137.83144837	      1.14090215	     19.29704386	    -20.01927065	     11.33547298	    -29.28405630	    -37.84160455	     70.48656959	    131.77381065	      0.77597150	     11.69989739	     -7.81838583
      0.02500000	      1.42255546	    -10.95721349	     92.33222028	     -0.00868120	      2.03778703	      1.68122206	     23.78137363	     -1.69949037	      4.74886028	    -25.65786675	      6.18097608	     -1.94248317	      2.42327713	     26.49624295	     -3.24599406	      2.16992344	    -33.26437040	     13.14480153	     -7.34986477	      1.30961058	    -21.50178213	      1.21786577	     -0.06923893	      4.99731310	      3.55880428	     -4.90835260	     21.50239704	    -35.96721202	    -29.87703973	     65.25369265	    137.83151016	      1.14089386	     19.29686375	    -20.01928536	     11.33576519	    -29.28375561	    -37.84127736	     70.48716389	    131.77355920	      0.77585636	     11.69986522	     -7.81830364
      0.02750000	      1.44271709	    -10.93537202	     92.30101598	     -0.00853348	      2.03734239	      1.68233916	     24.01129646	     -1.68694825	      4.63616482	    -25.97882619	      6.12686623	     -1.90255796	      2.43362432	     26.54986026	     -3.29442729	      2.15399033	    -33.28086058	     13.16205387	     -7.35611178	      1.30652062	    -21.75757805	      1.23505927	     -0.02811397	      4.94167147	      3.58307098	     -4.87132002	     21.67246233	    -36.02129797	    -29.89396539	     65.66303771	    137.86112839	      1.10578669	     19.22407459	    -20.03461426	     11.49735071	    -29.33681440	    -37.82194108	     70.80137225	    131.68732108	      0.70024696	     11.66661871	     -7.80088184
      0.03000000	      1.35494817	    -10.98084719	     92.23077869	     -0.00853149	      2.03711248	      1.68268730	     24.23453024	     -1.74224941	      4.69397062	    -26.25041875	      6.57604634	     -1.54401622	      2.50972591	     26.84764454	     -3.20329001	      2.08367078	    -33.80458837	     13.27283406	     -7.37523340	      1.28779954	    -22.01504847	      1.14059582	      0.00131636	      5.43184572	      3.58914647	     -4.60293358	     21.14288321	    -36.03776659	    -30.28904558	     66.71654417	    138.00948663	      1.14677747	     19.20051422	    -20.04503758	     11.13284611	    -29.36597839	    -38.01610106	     71.51596009	    131.11214411	      0.32976640	     11.81709861	     -7.61742368
